<?xml version="1.0" encoding="utf-8"?>
<!-- Generator: Adobe Illustrator 27.7.0, SVG Export Plug-In . SVG Version: 6.00 Build 0)  -->
<svg version="1.1" id="圖層_1" xmlns="http://www.w3.org/2000/svg" xmlns:xlink="http://www.w3.org/1999/xlink" x="0px" y="0px"
	 viewBox="0 0 448 512" style="enable-background:new 0 0 448 512;" xml:space="preserve">
<style type="text/css">
	.st0{fill:#FFFFFF;}
</style>
<path class="st0" d="M224,9.7c-17,0-30.8,13.8-30.8,30.8V59C123,73.2,70.1,135.4,70.1,209.8v18.1c0,45.2-16.6,88.9-46.7,122.8
	l-7.1,8c-8.1,9-10,22-5.1,33.1c4.9,11.1,16,18.2,28.1,18.2h369.4c12.1,0,23.1-7.1,28.1-18.2c5-11.1,3-24-5.1-33.1l-7.1-8
	c-30-33.9-46.7-77.4-46.7-122.8v-18.1c0-74.5-52.9-136.6-123.1-150.8V40.5C254.8,23.5,241,9.7,224,9.7z M267.6,484.3
	c11.5-11.5,18-27.2,18-43.6H224h-61.6c0,16.4,6.4,32,18,43.6s27.2,18,43.6,18S256,495.8,267.6,484.3z"/>
</svg>
