<?xml version="1.0" encoding="utf-8"?>
<!-- Generator: Adobe Illustrator 27.7.0, SVG Export Plug-In . SVG Version: 6.00 Build 0)  -->
<svg version="1.1" id="圖層_1" xmlns="http://www.w3.org/2000/svg" xmlns:xlink="http://www.w3.org/1999/xlink" x="0px" y="0px"
	 viewBox="0 0 512 512" style="enable-background:new 0 0 512 512;" xml:space="preserve">
<style type="text/css">
	.st0{fill:#4E8397;}
</style>
<path class="st0" d="M130.9,5.9c-51.8,0-93.8,42-93.8,93.8v312.7c0,51.8,42,93.8,93.8,93.8h281.4h31.3c17.3,0,31.3-14,31.3-31.3
	s-14-31.3-31.3-31.3v-62.5c17.3,0,31.3-14,31.3-31.3V37.1c0-17.3-14-31.3-31.3-31.3h-31.3H130.9z M130.9,381.1h250.1v62.5H130.9
	c-17.3,0-31.3-14-31.3-31.3S113.6,381.1,130.9,381.1z M162.2,146.6c0-8.6,7-15.6,15.6-15.6h187.6c8.6,0,15.6,7,15.6,15.6
	s-7,15.6-15.6,15.6H177.8C169.2,162.2,162.2,155.2,162.2,146.6z M177.8,193.5h187.6c8.6,0,15.6,7,15.6,15.6s-7,15.6-15.6,15.6H177.8
	c-8.6,0-15.6-7-15.6-15.6S169.2,193.5,177.8,193.5z"/>
</svg>
