<?xml version="1.0" encoding="utf-8"?>
<!-- Generator: Adobe Illustrator 27.7.0, SVG Export Plug-In . SVG Version: 6.00 Build 0)  -->
<svg version="1.1" id="圖層_1" xmlns="http://www.w3.org/2000/svg" xmlns:xlink="http://www.w3.org/1999/xlink" x="0px" y="0px"
	 viewBox="0 0 512 500" style="enable-background:new 0 0 512 500;" xml:space="preserve">
<style type="text/css">
	.st0{fill:#FFFFFF;}
</style>
<path class="st0" d="M185.5,62.1h140.9c4.3,0,7.8,3.5,7.8,7.8v39.1H177.7V70C177.7,65.6,181.2,62.1,185.5,62.1z M130.8,70v39.1H68.1
	c-34.5,0-62.6,28.1-62.6,62.6v93.9h187.9h125.2h187.9v-93.9c0-34.5-28.1-62.6-62.6-62.6h-62.6V70c0-30.2-24.6-54.8-54.8-54.8H185.5
	C155.3,15.2,130.8,39.7,130.8,70z M506.5,297H318.6v31.3c0,17.3-14,31.3-31.3,31.3h-62.6c-17.3,0-31.3-14-31.3-31.3V297H5.5v125.2
	c0,34.5,28.1,62.6,62.6,62.6h375.8c34.5,0,62.6-28.1,62.6-62.6V297z"/>
</svg>
