<?xml version="1.0" encoding="utf-8"?>
<!-- Generator: Adobe Illustrator 27.7.0, SVG Export Plug-In . SVG Version: 6.00 Build 0)  -->
<svg version="1.1" id="圖層_1" xmlns="http://www.w3.org/2000/svg" xmlns:xlink="http://www.w3.org/1999/xlink" x="0px" y="0px"
	 viewBox="0 0 512 512" style="enable-background:new 0 0 512 512;" xml:space="preserve">
<style type="text/css">
	.st0{fill:#FFC75F;}
</style>
<path class="st0" d="M325.3,400.8c-21.7,7.8-45,12.1-69.3,12.1s-47.7-4.3-69.3-12.1c-0.3-0.1-0.5-0.2-0.8-0.3
	c-29.4-10.8-55.7-28.1-77.1-50.4c-35.2-36.7-56.8-86.4-56.8-141.2C52.1,96.3,143.3,5,256,5s203.9,91.3,203.9,203.9
	c0,54.8-21.6,104.5-56.8,141.2c-1,1-2,2.1-2.9,3C379.2,374.1,353.8,390.5,325.3,400.8L325.3,400.8z M256,95.1
	c-10.9,0-19.7,8.8-19.7,19.7v5.9c-5.5,1.2-10.7,2.8-15.6,5c-14.7,6.7-27.4,19-30.5,37c-1.8,10-0.8,19.6,3.3,28.4
	c4.1,8.6,10.5,14.7,17,19.1c11.4,7.7,26.4,12.3,37.8,15.7l2.2,0.7c13.6,4.1,22.9,7.3,28.7,11.5c2.5,1.8,3.3,3.1,3.6,3.9
	c0.3,0.8,0.9,2.5,0.2,6.6c-0.6,3.4-2.5,6.3-7.8,8.6c-6,2.5-15.7,3.8-28.2,1.9c-5.9-1-16.4-4.5-25.7-7.7l0,0l0,0l0,0
	c-2.2-0.7-4.2-1.5-6.3-2.1c-10.3-3.4-21.4,2.2-24.8,12.5c-3.4,10.3,2.2,21.4,12.5,24.8c1.2,0.4,2.6,0.9,4.3,1.5
	c7.7,2.6,19.9,6.8,29.2,8.9v6.2c0,10.9,8.8,19.7,19.7,19.7c10.9,0,19.7-8.8,19.7-19.7v-5.4c5.2-1,10.3-2.5,15.1-4.5
	c15.4-6.6,27.8-19.3,31-37.9c1.8-10.2,1-19.9-2.9-28.8c-3.8-8.8-10-15.3-16.6-20.1c-12-8.6-27.7-13.4-39.6-17.1l-0.8-0.2
	c-13.9-4.2-23.3-7.2-29.3-11.2c-2.5-1.8-3.3-2.9-3.5-3.4c-0.2-0.3-0.7-1.6-0.1-4.9c0.3-1.9,1.9-5.1,8-7.9c6.3-2.8,16.1-4.4,28-2.5
	c4.2,0.7,17.6,3.2,21.3,4.2c10.5,2.7,21.2-3.4,24-13.9s-3.4-21.2-13.9-24c-4.3-1.2-14.1-3.1-20.6-4.3v-6.2
	C275.7,103.9,266.9,95.1,256,95.1z M52.1,350.1h15.7c19.1,25.4,43.1,46.8,70.8,62.8H67.8v31.4H256h188.2v-31.4h-70.8
	c27.6-16,51.8-37.4,70.8-62.8h15.7c26,0,47.1,21.1,47.1,47.1v62.8c0,26-21.1,47.1-47.1,47.1H52.1C26.1,507,5,485.9,5,459.9v-62.8
	C5,371.2,26.1,350.1,52.1,350.1z"/>
</svg>
