<?xml version="1.0" encoding="utf-8"?>
<!-- Generator: Adobe Illustrator 27.7.0, SVG Export Plug-In . SVG Version: 6.00 Build 0)  -->
<svg version="1.1" id="圖層_1" xmlns="http://www.w3.org/2000/svg" xmlns:xlink="http://www.w3.org/1999/xlink" x="0px" y="0px"
	 viewBox="0 0 512 439" style="enable-background:new 0 0 512 439;" xml:space="preserve">
<style type="text/css">
	.st0{fill:#FFFFFF;}
</style>
<path class="st0" d="M56,107.5c26.5,0,48-21.5,48-48s-21.5-48-48-48S8,33,8,59.5S29.5,107.5,56,107.5z M184,27.5
	c-17.7,0-32,14.3-32,32s14.3,32,32,32h288c17.7,0,32-14.3,32-32s-14.3-32-32-32H184z M184,187.5c-17.7,0-32,14.3-32,32
	s14.3,32,32,32h288c17.7,0,32-14.3,32-32s-14.3-32-32-32H184z M184,347.5c-17.7,0-32,14.3-32,32s14.3,32,32,32h288
	c17.7,0,32-14.3,32-32s-14.3-32-32-32H184z M56,427.5c26.5,0,48-21.5,48-48s-21.5-48-48-48S8,353,8,379.5S29.5,427.5,56,427.5z
	 M104,219.5c0-26.5-21.5-48-48-48S8,193,8,219.5s21.5,48,48,48S104,246,104,219.5z"/>
</svg>
