<?xml version="1.0" encoding="utf-8"?>
<!-- Generator: Adobe Illustrator 27.7.0, SVG Export Plug-In . SVG Version: 6.00 Build 0)  -->
<svg version="1.1" id="圖層_1" xmlns="http://www.w3.org/2000/svg" xmlns:xlink="http://www.w3.org/1999/xlink" x="0px" y="0px"
	 viewBox="0 0 512 512" style="enable-background:new 0 0 512 512;" xml:space="preserve">
<style type="text/css">
	.st0{fill:#FF6F91;}
</style>
<path class="st0" d="M204.8,92.4h102.4v61.2H204.8V92.4z M192,41.2c-21.2,0-38.4,17.2-38.4,38.4v86.8c0,21.2,17.2,38.4,38.4,38.4
	h38.4v25.6H25.6C11.4,230.4,0,241.8,0,256s11.4,25.6,25.6,25.6h76.8v25.6H64c-21.2,0-38.4,17.2-38.4,38.4v86.8
	c0,21.2,17.2,38.4,38.4,38.4h128c21.2,0,38.4-17.2,38.4-38.4v-86.8c0-21.2-17.2-38.4-38.4-38.4h-38.4v-25.6h204.8v25.6H320
	c-21.2,0-38.4,17.2-38.4,38.4v86.8c0,21.2,17.2,38.4,38.4,38.4h128c21.2,0,38.4-17.2,38.4-38.4v-86.8c0-21.2-17.2-38.4-38.4-38.4
	h-38.4v-25.6h76.8c14.2,0,25.6-11.4,25.6-25.6s-11.4-25.6-25.6-25.6H281.6v-25.6H320c21.2,0,38.4-17.2,38.4-38.4V79.6
	c0-21.2-17.2-38.4-38.4-38.4C320,41.2,192,41.2,192,41.2z M76.8,419.6v-61.2h102.4v61.2H76.8z M332.8,358.4h102.4v61.2H332.8V358.4z
	"/>
</svg>
