<?xml version="1.0" encoding="utf-8"?>
<!-- Generator: Adobe Illustrator 27.7.0, SVG Export Plug-In . SVG Version: 6.00 Build 0)  -->
<svg version="1.1" id="圖層_1" xmlns="http://www.w3.org/2000/svg" xmlns:xlink="http://www.w3.org/1999/xlink" x="0px" y="0px"
	 viewBox="0 0 512 512" style="enable-background:new 0 0 512 512;" xml:space="preserve">
<style type="text/css">
	.st0{fill:#008F7A;}
</style>
<path class="st0" d="M183.7,45.6c58.1,0,105.2,47.1,105.2,105.2S241.8,256,183.7,256S78.5,208.9,78.5,150.8S125.6,45.6,183.7,45.6z
	 M146.1,295.5h75.1c9.7,0,19.2,1,28.4,2.7c-1.7,15.2,6.1,29.3,17.9,36.8c-13.6,8.7-21.9,26-16.4,43.8c3.3,10.6,7.7,21,13.5,30.9
	c5.8,9.9,12.5,19,20.1,27.1c12.9,13.9,32.6,15.1,47,7.2v0.7c0,7.6,2.2,15.2,6.5,21.6H24c-13.5,0.1-24.4-10.9-24.4-24.3
	C-0.5,361.1,65.1,295.5,146.1,295.5z M358,225c0-5.8,3.7-10.9,9.3-12.2c8.6-2,17.7-3,26.9-3c9.2,0,18.2,1.1,26.9,3
	c5.6,1.2,9.3,6.4,9.3,12.2v25.2c6.5,2.8,12.7,6.3,18.3,10.5l20.5-11.8c5-2.9,11.3-2.2,15.2,2c6.2,6.7,11.8,14.1,16.5,22.4
	s8.5,16.8,11.1,25.5c1.7,5.5-0.9,11.3-5.9,14.1l-20.6,11.8c0.3,3.3,0.6,6.7,0.6,10.1s-0.2,6.7-0.6,10.1l20.6,11.8
	c5,2.9,7.6,8.6,5.9,14.1c-2.7,8.7-6.4,17.3-11.1,25.5s-10.3,15.7-16.5,22.4c-3.9,4.2-10.3,4.9-15.2,2l-20.5-11.8
	c-5.7,4.2-11.8,7.7-18.3,10.5v25.2c0,5.8-3.7,10.9-9.3,12.2c-8.6,2-17.7,3-26.9,3c-9.2,0-18.2-1.1-26.9-3c-5.6-1.2-9.3-6.4-9.3-12.2
	v-25.2c-6.6-2.8-12.8-6.3-18.5-10.6l-20.3,11.8c-5,2.9-11.3,2.2-15.2-2c-6.2-6.7-11.8-14.1-16.5-22.4s-8.5-16.8-11.1-25.5
	c-1.7-5.5,0.9-11.3,5.9-14.1l20.4-11.8c-0.3-3.4-0.6-6.7-0.6-10.2s0.2-6.8,0.6-10.2l-20.5-11.8c-5-2.9-7.6-8.6-5.9-14.1
	c2.7-8.7,6.3-17.3,11.1-25.5s10.3-15.7,16.5-22.4c3.9-4.2,10.2-4.9,15.2-2l20.4,11.8c5.7-4.2,11.9-7.7,18.5-10.6L358,225L358,225z
	 M433.7,334.7c1-21.8-15.9-40.3-37.7-41.3c-21.8-1-40.3,15.9-41.3,37.7c-0.1,1.2-0.1,2.4,0,3.6c-1,21.8,15.9,40.3,37.7,41.3
	c21.8,1,40.3-15.9,41.3-37.7C433.7,337.1,433.7,335.9,433.7,334.7z"/>
</svg>
